# Blender v2.78 (sub 0) OBJ File: ''
# www.blender.org
mtllib ND.mtl
o Curve_Mesh
v 4.600708 3.709356 5.175554
v 4.563707 3.709356 4.602160
v 4.397202 3.709356 3.927036
v 4.230699 3.709356 2.668346
v 4.184447 3.709356 1.771263
v 4.008693 3.709356 1.477168
v 3.860689 3.709356 0.985160
v 3.860689 3.709356 0.018714
v 3.916191 3.709356 -0.337344
v 3.749686 3.709356 -0.849699
v 1.104120 3.709356 -0.900565
v -0.616423 3.709356 -0.956054
v -3.067734 3.709356 -1.076281
v -5.398791 3.709356 -1.276045
v -5.482044 3.709356 0.057557
v -5.916804 3.709356 4.768630
v -0.662674 3.709356 5.129313
v 4.600708 3.709356 5.290233
vn 0.0000 1.0000 0.0000
usemtl SVGMat
s off
f 15//1 13//1 14//1
f 15//1 12//1 13//1
f 15//1 11//1 12//1
f 15//1 10//1 11//1
f 15//1 9//1 10//1
f 15//1 8//1 9//1
f 15//1 7//1 8//1
f 16//1 7//1 15//1
f 16//1 6//1 7//1
f 16//1 5//1 6//1
f 16//1 4//1 5//1
f 16//1 3//1 4//1
f 16//1 2//1 3//1
f 16//1 1//1 2//1
f 17//1 1//1 16//1
f 18//1 1//1 17//1
